<svg xmlns="http://www.w3.org/2000/svg" viewBox="0 0 512 512">
  <defs>
    <radialGradient id="bg" cx="50%" cy="85%" r="90%">
      <stop offset="0%" stop-color="#280840"/>
      <stop offset="50%" stop-color="#0a0420"/>
      <stop offset="100%" stop-color="#020208"/>
    </radialGradient>
    <radialGradient id="spotlight" cx="50%" cy="90%" r="60%">
      <stop offset="0%" stop-color="#ff4da6" stop-opacity="0.25"/>
      <stop offset="100%" stop-color="#ff4da6" stop-opacity="0"/>
    </radialGradient>
    <radialGradient id="spotlight2" cx="50%" cy="90%" r="40%">
      <stop offset="0%" stop-color="#00e5ff" stop-opacity="0.1"/>
      <stop offset="100%" stop-color="#00e5ff" stop-opacity="0"/>
    </radialGradient>
    <filter id="glow">
      <feGaussianBlur stdDeviation="3" result="b"/>
      <feMerge><feMergeNode in="b"/><feMergeNode in="SourceGraphic"/></feMerge>
    </filter>
  </defs>
  
  <!-- Background -->
  <rect width="512" height="512" fill="url(#bg)"/>
  <!-- Stage light -->
  <rect width="512" height="512" fill="url(#spotlight)"/>
  <rect width="512" height="512" fill="url(#spotlight2)"/>
  
  <!-- Stage floor glow -->
  <ellipse cx="256" cy="490" rx="220" ry="28" fill="#ff4da6" opacity="0.18"/>
  <ellipse cx="256" cy="490" rx="140" ry="16" fill="#ffffff" opacity="0.06"/>
  
  <!-- Dancers (back to front) -->
  <g filter="url(#glow)">
<ellipse cx="28" cy="157.6" rx="15.399999999999999" ry="19.8" fill="#ce93d8" opacity="0.12"/>
<circle cx="28.0" cy="146.2" r="4.2" fill="#ce93d8"/>
<rect x="25.6" y="150.3" width="4.8" height="11.7" rx="1.5" fill="#ce93d8"/>
<line x1="28.0" y1="152.1" x2="19.6" y2="144.4" stroke="#ce93d8" stroke-width="2.4" stroke-linecap="round"/>
<line x1="28.0" y1="152.1" x2="36.4" y2="144.4" stroke="#ce93d8" stroke-width="2.4" stroke-linecap="round"/>
<line x1="26.9" y1="162.0" x2="22.5" y2="172.6" stroke="#ce93d8" stroke-width="2.4" stroke-linecap="round"/>
<line x1="29.1" y1="162.0" x2="33.5" y2="172.6" stroke="#ce93d8" stroke-width="2.4" stroke-linecap="round"/>
<ellipse cx="116" cy="157.6" rx="15.399999999999999" ry="19.8" fill="#00e5ff" opacity="0.12"/>
<circle cx="116.0" cy="146.2" r="4.2" fill="#00e5ff"/>
<rect x="113.6" y="150.3" width="4.8" height="11.7" rx="1.5" fill="#00e5ff"/>
<line x1="116.0" y1="152.8" x2="109.4" y2="149.9" stroke="#00e5ff" stroke-width="2.4" stroke-linecap="round"/>
<line x1="116.0" y1="152.1" x2="125.9" y2="142.6" stroke="#00e5ff" stroke-width="2.4" stroke-linecap="round"/>
<line x1="114.9" y1="162.0" x2="110.5" y2="172.6" stroke="#00e5ff" stroke-width="2.4" stroke-linecap="round"/>
<line x1="117.1" y1="162.0" x2="121.5" y2="172.6" stroke="#00e5ff" stroke-width="2.4" stroke-linecap="round"/>
<ellipse cx="220" cy="157.6" rx="15.399999999999999" ry="19.8" fill="#ffd60a" opacity="0.12"/>
<circle cx="220.0" cy="146.2" r="4.2" fill="#ffd60a"/>
<rect x="217.6" y="150.3" width="4.8" height="11.7" rx="1.5" fill="#ffd60a"/>
<line x1="220.0" y1="152.1" x2="210.1" y2="142.6" stroke="#ffd60a" stroke-width="2.4" stroke-linecap="round"/>
<line x1="220.0" y1="152.8" x2="226.6" y2="149.9" stroke="#ffd60a" stroke-width="2.4" stroke-linecap="round"/>
<line x1="218.9" y1="162.0" x2="214.5" y2="172.6" stroke="#ffd60a" stroke-width="2.4" stroke-linecap="round"/>
<line x1="221.1" y1="162.0" x2="225.5" y2="172.6" stroke="#ffd60a" stroke-width="2.4" stroke-linecap="round"/>
<ellipse cx="340" cy="157.6" rx="15.399999999999999" ry="19.8" fill="#ff4da6" opacity="0.12"/>
<circle cx="340.0" cy="146.2" r="4.2" fill="#ff4da6"/>
<rect x="337.6" y="150.3" width="4.8" height="11.7" rx="1.5" fill="#ff4da6"/>
<line x1="340.0" y1="152.1" x2="331.6" y2="144.4" stroke="#ff4da6" stroke-width="2.4" stroke-linecap="round"/>
<line x1="340.0" y1="152.1" x2="348.4" y2="144.4" stroke="#ff4da6" stroke-width="2.4" stroke-linecap="round"/>
<line x1="338.9" y1="162.0" x2="334.5" y2="172.6" stroke="#ff4da6" stroke-width="2.4" stroke-linecap="round"/>
<line x1="341.1" y1="162.0" x2="345.5" y2="172.6" stroke="#ff4da6" stroke-width="2.4" stroke-linecap="round"/>
<ellipse cx="440" cy="157.6" rx="15.399999999999999" ry="19.8" fill="#b3ff00" opacity="0.12"/>
<circle cx="440.0" cy="146.2" r="4.2" fill="#b3ff00"/>
<rect x="437.6" y="150.3" width="4.8" height="11.7" rx="1.5" fill="#b3ff00"/>
<line x1="440.0" y1="152.8" x2="433.4" y2="149.9" stroke="#b3ff00" stroke-width="2.4" stroke-linecap="round"/>
<line x1="440.0" y1="152.1" x2="449.9" y2="142.6" stroke="#b3ff00" stroke-width="2.4" stroke-linecap="round"/>
<line x1="438.9" y1="162.0" x2="434.5" y2="172.6" stroke="#b3ff00" stroke-width="2.4" stroke-linecap="round"/>
<line x1="441.1" y1="162.0" x2="445.5" y2="172.6" stroke="#b3ff00" stroke-width="2.4" stroke-linecap="round"/>
<ellipse cx="52" cy="209.8" rx="21.7" ry="27.900000000000002" fill="#ffd60a" opacity="0.12"/>
<circle cx="52.0" cy="193.7" r="5.9" fill="#ffd60a"/>
<rect x="48.6" y="199.6" width="6.8" height="16.4" rx="2.2" fill="#ffd60a"/>
<line x1="52.0" y1="202.1" x2="38.0" y2="188.7" stroke="#ffd60a" stroke-width="3.4" stroke-linecap="round"/>
<line x1="52.0" y1="203.0" x2="61.3" y2="198.9" stroke="#ffd60a" stroke-width="3.4" stroke-linecap="round"/>
<line x1="50.5" y1="216.0" x2="44.2" y2="230.9" stroke="#ffd60a" stroke-width="3.4" stroke-linecap="round"/>
<line x1="53.5" y1="216.0" x2="59.8" y2="230.9" stroke="#ffd60a" stroke-width="3.4" stroke-linecap="round"/>
<ellipse cx="162" cy="209.8" rx="21.7" ry="27.900000000000002" fill="#ce93d8" opacity="0.12"/>
<circle cx="162.0" cy="193.7" r="5.9" fill="#ce93d8"/>
<rect x="158.6" y="199.6" width="6.8" height="16.4" rx="2.2" fill="#ce93d8"/>
<line x1="162.0" y1="202.1" x2="150.2" y2="191.2" stroke="#ce93d8" stroke-width="3.4" stroke-linecap="round"/>
<line x1="162.0" y1="202.1" x2="173.8" y2="191.2" stroke="#ce93d8" stroke-width="3.4" stroke-linecap="round"/>
<line x1="160.4" y1="216.0" x2="154.2" y2="230.9" stroke="#ce93d8" stroke-width="3.4" stroke-linecap="round"/>
<line x1="163.6" y1="216.0" x2="169.8" y2="230.9" stroke="#ce93d8" stroke-width="3.4" stroke-linecap="round"/>
<ellipse cx="310" cy="209.8" rx="21.7" ry="27.900000000000002" fill="#ff6b35" opacity="0.12"/>
<circle cx="310.0" cy="193.7" r="5.9" fill="#ff6b35"/>
<rect x="306.6" y="199.6" width="6.8" height="16.4" rx="2.2" fill="#ff6b35"/>
<line x1="310.0" y1="203.0" x2="300.7" y2="198.9" stroke="#ff6b35" stroke-width="3.4" stroke-linecap="round"/>
<line x1="310.0" y1="202.1" x2="323.9" y2="188.7" stroke="#ff6b35" stroke-width="3.4" stroke-linecap="round"/>
<line x1="308.4" y1="216.0" x2="302.2" y2="230.9" stroke="#ff6b35" stroke-width="3.4" stroke-linecap="round"/>
<line x1="311.6" y1="216.0" x2="317.8" y2="230.9" stroke="#ff6b35" stroke-width="3.4" stroke-linecap="round"/>
<ellipse cx="430" cy="209.8" rx="21.7" ry="27.900000000000002" fill="#b3ff00" opacity="0.12"/>
<circle cx="430.0" cy="193.7" r="5.9" fill="#b3ff00"/>
<rect x="426.6" y="199.6" width="6.8" height="16.4" rx="2.2" fill="#b3ff00"/>
<line x1="430.0" y1="202.1" x2="416.1" y2="188.7" stroke="#b3ff00" stroke-width="3.4" stroke-linecap="round"/>
<line x1="430.0" y1="203.0" x2="439.3" y2="198.9" stroke="#b3ff00" stroke-width="3.4" stroke-linecap="round"/>
<line x1="428.4" y1="216.0" x2="422.2" y2="230.9" stroke="#b3ff00" stroke-width="3.4" stroke-linecap="round"/>
<line x1="431.6" y1="216.0" x2="437.8" y2="230.9" stroke="#b3ff00" stroke-width="3.4" stroke-linecap="round"/>
<ellipse cx="100" cy="269.4" rx="30.099999999999998" ry="38.7" fill="#b3ff00" opacity="0.12"/>
<circle cx="100.0" cy="247.0" r="8.2" fill="#b3ff00"/>
<rect x="95.3" y="255.2" width="9.5" height="22.8" rx="3.0" fill="#b3ff00"/>
<line x1="100.0" y1="258.6" x2="83.7" y2="243.6" stroke="#b3ff00" stroke-width="4.7" stroke-linecap="round"/>
<line x1="100.0" y1="258.6" x2="116.3" y2="243.6" stroke="#b3ff00" stroke-width="4.7" stroke-linecap="round"/>
<line x1="97.8" y1="278.0" x2="89.2" y2="298.6" stroke="#b3ff00" stroke-width="4.7" stroke-linecap="round"/>
<line x1="102.2" y1="278.0" x2="110.8" y2="298.6" stroke="#b3ff00" stroke-width="4.7" stroke-linecap="round"/>
<ellipse cx="256" cy="269.4" rx="30.099999999999998" ry="38.7" fill="#ff4da6" opacity="0.12"/>
<circle cx="256.0" cy="247.0" r="8.2" fill="#ff4da6"/>
<rect x="251.3" y="255.2" width="9.5" height="22.8" rx="3.0" fill="#ff4da6"/>
<line x1="256.0" y1="258.6" x2="236.7" y2="240.2" stroke="#ff4da6" stroke-width="4.7" stroke-linecap="round"/>
<line x1="256.0" y1="259.9" x2="268.9" y2="254.3" stroke="#ff4da6" stroke-width="4.7" stroke-linecap="round"/>
<line x1="253.8" y1="278.0" x2="245.2" y2="298.6" stroke="#ff4da6" stroke-width="4.7" stroke-linecap="round"/>
<line x1="258.1" y1="278.0" x2="266.8" y2="298.6" stroke="#ff4da6" stroke-width="4.7" stroke-linecap="round"/>
<ellipse cx="412" cy="269.4" rx="30.099999999999998" ry="38.7" fill="#00e5ff" opacity="0.12"/>
<circle cx="412.0" cy="247.0" r="8.2" fill="#00e5ff"/>
<rect x="407.3" y="255.2" width="9.5" height="22.8" rx="3.0" fill="#00e5ff"/>
<line x1="412.0" y1="259.9" x2="399.1" y2="254.3" stroke="#00e5ff" stroke-width="4.7" stroke-linecap="round"/>
<line x1="412.0" y1="258.6" x2="431.4" y2="240.2" stroke="#00e5ff" stroke-width="4.7" stroke-linecap="round"/>
<line x1="409.9" y1="278.0" x2="401.2" y2="298.6" stroke="#00e5ff" stroke-width="4.7" stroke-linecap="round"/>
<line x1="414.1" y1="278.0" x2="422.8" y2="298.6" stroke="#00e5ff" stroke-width="4.7" stroke-linecap="round"/>
<ellipse cx="178" cy="338.4" rx="40.599999999999994" ry="52.2" fill="#00e5ff" opacity="0.12"/>
<circle cx="178.0" cy="308.2" r="11.0" fill="#00e5ff"/>
<rect x="171.6" y="319.3" width="12.8" height="30.7" rx="4.1" fill="#00e5ff"/>
<line x1="178.0" y1="323.9" x2="151.9" y2="299.0" stroke="#00e5ff" stroke-width="6.4" stroke-linecap="round"/>
<line x1="178.0" y1="325.6" x2="195.4" y2="318.1" stroke="#00e5ff" stroke-width="6.4" stroke-linecap="round"/>
<line x1="175.1" y1="350.0" x2="163.5" y2="377.8" stroke="#00e5ff" stroke-width="6.4" stroke-linecap="round"/>
<line x1="180.9" y1="350.0" x2="192.5" y2="377.8" stroke="#00e5ff" stroke-width="6.4" stroke-linecap="round"/>
<ellipse cx="334" cy="338.4" rx="40.599999999999994" ry="52.2" fill="#ffd60a" opacity="0.12"/>
<circle cx="334.0" cy="308.2" r="11.0" fill="#ffd60a"/>
<rect x="327.6" y="319.3" width="12.8" height="30.7" rx="4.1" fill="#ffd60a"/>
<line x1="334.0" y1="325.6" x2="316.6" y2="318.1" stroke="#ffd60a" stroke-width="6.4" stroke-linecap="round"/>
<line x1="334.0" y1="323.9" x2="360.1" y2="299.0" stroke="#ffd60a" stroke-width="6.4" stroke-linecap="round"/>
<line x1="331.1" y1="350.0" x2="319.5" y2="377.8" stroke="#ffd60a" stroke-width="6.4" stroke-linecap="round"/>
<line x1="336.9" y1="350.0" x2="348.5" y2="377.8" stroke="#ffd60a" stroke-width="6.4" stroke-linecap="round"/>
<ellipse cx="256" cy="414.0" rx="56.0" ry="72.0" fill="#ff4da6" opacity="0.12"/>
<circle cx="256.0" cy="372.4" r="15.2" fill="#ff4da6"/>
<rect x="247.2" y="387.6" width="17.6" height="42.4" rx="5.6" fill="#ff4da6"/>
<line x1="256.0" y1="394.0" x2="225.6" y2="366.0" stroke="#ff4da6" stroke-width="8.8" stroke-linecap="round"/>
<line x1="256.0" y1="394.0" x2="286.4" y2="366.0" stroke="#ff4da6" stroke-width="8.8" stroke-linecap="round"/>
<line x1="252.0" y1="430.0" x2="236.0" y2="468.4" stroke="#ff4da6" stroke-width="8.8" stroke-linecap="round"/>
<line x1="260.0" y1="430.0" x2="276.0" y2="468.4" stroke="#ff4da6" stroke-width="8.8" stroke-linecap="round"/>
  </g>
  
  <!-- Title bar at bottom -->
  <rect x="40" y="486" width="432" height="22" rx="4" fill="#ff4da6" opacity="0.08"/>
  <text x="256" y="502" text-anchor="middle" 
    font-family="Arial Black, Impact, sans-serif" 
    font-size="18" font-weight="900" 
    fill="#ff4da6" letter-spacing="4" opacity="0.9">DANCER LEGEND</text>
</svg>